<svg width="171" height="40" viewBox="0 0 171 40" fill="none" xmlns="http://www.w3.org/2000/svg">
<g clip-path="url(#clip0)">
<path d="M58.631 13.5925C58.631 13.6573 58.5824 13.7059 58.5014 13.7059H57.8534C57.7724 13.7059 57.7238 13.6573 57.6914 13.5763L57.2702 12.4423H54.759L54.3378 13.5763C54.3054 13.6573 54.2568 13.7059 54.1596 13.7059H53.5116C53.4306 13.7059 53.382 13.6735 53.382 13.6087C53.382 13.5763 53.382 13.5601 53.3982 13.5439L55.5853 8.03561C55.6177 7.93841 55.6825 7.90601 55.7635 7.90601H56.2495C56.3305 7.90601 56.3953 7.95461 56.4277 8.03561L58.6148 13.5439C58.631 13.5601 58.631 13.5763 58.631 13.5925ZM55.0506 11.6646H56.9786L56.0065 9.05627L55.0506 11.6646Z" fill="#222539"/>
<path d="M60.235 8.0032V11.373C60.235 11.8266 60.3646 12.1992 60.64 12.4909C60.9154 12.7987 61.2718 12.9445 61.693 12.9283C62.1143 12.9283 62.4707 12.7825 62.7461 12.4909C63.0215 12.1992 63.1511 11.8104 63.1511 11.373V8.0032C63.1511 7.9222 63.1835 7.8736 63.2645 7.8736H63.8964C63.9774 7.8736 64.0098 7.9222 64.0098 8.0032V11.373C64.0098 12.102 63.7992 12.6853 63.3779 13.1389C62.9405 13.5925 62.3735 13.8193 61.693 13.8031C60.9802 13.8031 60.4132 13.5925 59.9919 13.1389C59.5707 12.6853 59.3601 12.0858 59.3601 11.3568V8.0032C59.3601 7.9222 59.3925 7.8736 59.4735 7.8736H60.1377C60.2026 7.8736 60.235 7.9222 60.235 8.0032Z" fill="#222539"/>
<path d="M64.9493 8.60261V8.03558C64.9493 7.93837 64.9979 7.88977 65.0951 7.88977H68.8052C68.9024 7.88977 68.951 7.93837 68.951 8.03558V8.60261C68.951 8.65121 68.9348 8.68361 68.9186 8.71602C68.8862 8.74842 68.8538 8.76462 68.8214 8.76462H67.3957V13.5763C67.3957 13.6735 67.3471 13.7221 67.2499 13.7221H66.6666C66.5694 13.7221 66.5208 13.6735 66.5208 13.5763V8.76462H65.0951C65.0465 8.76462 65.0141 8.74842 64.9817 8.73222C64.9493 8.71602 64.9493 8.65121 64.9493 8.60261Z" fill="#222539"/>
<path d="M72.3856 7.7926C72.9202 7.7926 73.4224 7.92221 73.8599 8.19762C74.3135 8.45684 74.6699 8.82946 74.9291 9.28308C75.1883 9.73671 75.3179 10.2551 75.3179 10.806C75.3179 11.3568 75.1883 11.859 74.9291 12.3289C74.6699 12.7825 74.3135 13.1389 73.8599 13.4143C73.4062 13.6735 72.9202 13.8193 72.3856 13.8193C71.8509 13.8193 71.3487 13.6897 70.8951 13.4143C70.4415 13.1389 70.085 12.7825 69.8258 12.3289C69.5666 11.8752 69.437 11.373 69.437 10.806C69.437 10.2551 69.5666 9.73671 69.8258 9.28308C70.085 8.82946 70.4415 8.45684 70.8951 8.19762C71.3487 7.92221 71.8509 7.7926 72.3856 7.7926ZM72.3856 12.8959C72.661 12.8959 72.9364 12.8473 73.1794 12.7339C73.4386 12.6205 73.6492 12.4747 73.8437 12.2802C74.0381 12.0858 74.1839 11.859 74.2811 11.5998C74.3945 11.3406 74.4431 11.0652 74.4431 10.7898C74.4431 10.4009 74.3459 10.0445 74.1677 9.72051C73.9895 9.39649 73.7302 9.13728 73.4224 8.95907C73.0984 8.76466 72.7582 8.68365 72.3856 8.68365C72.1102 8.68365 71.8347 8.73225 71.5755 8.84566C71.3163 8.95907 71.0895 9.10487 70.9113 9.29929C70.7331 9.4937 70.5873 9.72051 70.4739 9.97972C70.3605 10.2389 70.3119 10.5144 70.3281 10.806C70.3281 11.0976 70.3767 11.3568 70.4739 11.616C70.5711 11.8752 70.7331 12.102 70.9113 12.2965C71.0895 12.4909 71.3163 12.6367 71.5755 12.7501C71.8347 12.8635 72.1102 12.9121 72.3856 12.8959Z" fill="#222539"/>
<path d="M78.2017 8.60261V8.03558C78.2017 7.93837 78.2503 7.88977 78.3475 7.88977H82.0575C82.1547 7.88977 82.2033 7.93837 82.2033 8.03558V8.60261C82.2033 8.65121 82.1871 8.68361 82.1709 8.71602C82.1385 8.74842 82.1061 8.76462 82.0737 8.76462H80.6642V13.5763C80.6642 13.6735 80.6156 13.7221 80.5184 13.7221H79.9352C79.8379 13.7221 79.7893 13.6735 79.7893 13.5763V8.76462H78.3637C78.3151 8.76462 78.2827 8.74842 78.2503 8.73222C78.2017 8.68361 78.2017 8.65121 78.2017 8.60261Z" fill="#222539"/>
<path d="M87.2904 13.5925C87.2904 13.6249 87.2742 13.6573 87.258 13.6735C87.2418 13.6897 87.2094 13.7059 87.177 13.7059H86.4642C86.3994 13.7059 86.3508 13.6573 86.3022 13.5763L85.3625 11.7456H85.2977H84.2123V13.5439C84.2123 13.6411 84.1636 13.6897 84.0664 13.6897H83.4832C83.386 13.6897 83.3374 13.6411 83.3374 13.5439V8.0356C83.3374 7.987 83.3536 7.9546 83.3698 7.9222C83.4022 7.8898 83.4346 7.8736 83.467 7.8736H83.6128H84.0664H85.2815C85.8485 7.8736 86.3184 8.05181 86.691 8.40823C87.0636 8.78085 87.2418 9.23447 87.2418 9.8015C87.2418 10.1903 87.1446 10.5305 86.9664 10.8384C86.7882 11.1462 86.5452 11.3568 86.2212 11.5188L87.258 13.5115C87.2742 13.5439 87.2904 13.5601 87.2904 13.5925ZM84.1961 8.73224V10.887H85.2815C85.5893 10.887 85.8485 10.7898 86.0592 10.5791C86.2698 10.3685 86.367 10.1255 86.367 9.8177C86.367 9.50989 86.2698 9.23447 86.0592 9.04006C85.8485 8.84565 85.5893 8.73224 85.2815 8.73224H84.1961Z" fill="#222539"/>
<path d="M93.3495 13.5925C93.3495 13.6573 93.3009 13.7059 93.2199 13.7059H92.5719C92.4909 13.7059 92.4423 13.6573 92.4099 13.5763L91.9886 12.4423H89.4775L89.0563 13.5763C89.0239 13.6573 88.9753 13.7059 88.878 13.7059H88.23C88.149 13.7059 88.1004 13.6735 88.1004 13.6087C88.1004 13.5763 88.1004 13.5601 88.1166 13.5439L90.3037 8.03561C90.3361 7.93841 90.4009 7.90601 90.4819 7.90601H90.968C91.049 7.90601 91.1138 7.95461 91.1462 8.03561L93.3333 13.5439C93.3333 13.5601 93.3495 13.5763 93.3495 13.5925ZM89.7529 11.6646H91.6808L90.725 9.05627L89.7529 11.6646Z" fill="#222539"/>
<path d="M99.3115 7.987V13.5763C99.3115 13.6573 99.2791 13.6897 99.1981 13.6897H98.5825C98.5015 13.6897 98.4205 13.6573 98.3719 13.5763L95.3261 9.20207V13.5763C95.3261 13.6573 95.2937 13.6897 95.2127 13.6897H94.5646C94.4836 13.6897 94.4512 13.6573 94.4512 13.5763V7.987C94.4512 7.906 94.4836 7.8736 94.5646 7.8736H95.2451C95.3261 7.8736 95.3909 7.9222 95.4557 8.0032L98.4367 12.2316V7.987C98.4367 7.906 98.4691 7.8736 98.5501 7.8736H99.1981C99.2791 7.8736 99.3115 7.9222 99.3115 7.987Z" fill="#222539"/>
<path d="M100.575 12.9283C100.575 12.8959 100.591 12.8635 100.608 12.8311L100.932 12.3613C100.964 12.3127 101.013 12.2965 101.045 12.2965C101.077 12.2965 101.11 12.3127 101.158 12.3289C101.337 12.4747 101.563 12.6043 101.839 12.7177C102.114 12.8149 102.406 12.8797 102.714 12.8797C103.086 12.8797 103.41 12.7987 103.653 12.6529C103.896 12.5071 104.026 12.2965 104.026 12.0372C104.026 11.859 103.961 11.7132 103.831 11.5998C103.686 11.454 103.524 11.3568 103.345 11.292C103.119 11.211 102.876 11.1462 102.633 11.0814C102.244 10.968 101.92 10.8546 101.644 10.725C101.094 10.4496 100.818 10.0283 100.818 9.4613C100.818 8.95907 100.996 8.57025 101.369 8.26244C101.742 7.95462 102.228 7.82501 102.827 7.82501C103.167 7.82501 103.491 7.87362 103.815 7.97082C104.139 8.06803 104.399 8.19763 104.625 8.37584C104.674 8.40824 104.69 8.45685 104.69 8.50545C104.69 8.53785 104.674 8.57025 104.658 8.60265L104.334 9.07248C104.301 9.12108 104.253 9.13728 104.22 9.13728C104.188 9.13728 104.155 9.12108 104.107 9.10488C103.864 8.95907 103.653 8.86187 103.491 8.79707C103.329 8.74846 103.102 8.71606 102.827 8.71606C102.503 8.71606 102.244 8.78087 102.017 8.92667C101.79 9.05628 101.693 9.23449 101.693 9.4451C101.693 9.59091 101.758 9.73672 101.871 9.83392C101.985 9.93113 102.098 10.0121 102.26 10.0607C102.406 10.1255 102.616 10.1903 102.892 10.2551C103.345 10.3848 103.702 10.5144 103.977 10.644C104.253 10.7736 104.48 10.9356 104.658 11.1624C104.836 11.373 104.917 11.6646 104.917 11.9886C104.917 12.3451 104.82 12.6529 104.625 12.9121C104.431 13.1875 104.172 13.3819 103.831 13.5277C103.507 13.6735 103.135 13.7383 102.73 13.7383C102.325 13.7383 101.968 13.6735 101.644 13.5601C101.32 13.4467 100.996 13.2685 100.689 13.0417C100.608 13.0093 100.575 12.9769 100.575 12.9283Z" fill="#222539"/>
<path d="M110.004 9.8177C110.004 10.1903 109.923 10.5143 109.761 10.806C109.583 11.1138 109.356 11.3406 109.048 11.5026C108.74 11.6646 108.416 11.7456 108.044 11.7456H107.023V13.5439C107.023 13.6411 106.975 13.6897 106.877 13.6897H106.294C106.197 13.6897 106.148 13.6411 106.148 13.5439V8.0356C106.148 7.987 106.164 7.9546 106.181 7.9222C106.213 7.8898 106.245 7.8736 106.278 7.8736H106.569H106.877H108.028C108.4 7.8736 108.74 7.9546 109.032 8.11661C109.34 8.27862 109.567 8.50543 109.729 8.81325C109.923 9.12106 110.004 9.44508 110.004 9.8177ZM109.129 9.8177C109.129 9.50989 109.032 9.25067 108.821 9.04006C108.611 8.82945 108.352 8.73224 108.044 8.73224H107.023V10.887H108.044C108.352 10.887 108.611 10.7898 108.821 10.5791C109.032 10.3847 109.129 10.1255 109.129 9.8177Z" fill="#222539"/>
<path d="M113.698 7.7926C114.232 7.7926 114.735 7.92221 115.172 8.19762C115.626 8.45684 115.982 8.82946 116.241 9.28308C116.517 9.73671 116.646 10.2551 116.646 10.806C116.646 11.3568 116.517 11.859 116.258 12.3289C115.998 12.7825 115.642 13.1389 115.188 13.4143C114.735 13.6735 114.249 13.8193 113.714 13.8193C113.179 13.8193 112.677 13.6897 112.224 13.4143C111.77 13.1389 111.413 12.7825 111.154 12.3289C110.895 11.8752 110.765 11.373 110.765 10.806C110.765 10.2551 110.895 9.73671 111.154 9.28308C111.413 8.82946 111.77 8.45684 112.224 8.19762C112.677 7.92221 113.163 7.7926 113.698 7.7926ZM113.698 12.8959C113.973 12.8959 114.249 12.8473 114.492 12.7339C114.735 12.6205 114.961 12.4747 115.156 12.2802C115.35 12.0858 115.496 11.859 115.593 11.5998C115.707 11.3406 115.755 11.0652 115.755 10.7898C115.755 10.4009 115.658 10.0445 115.48 9.72051C115.302 9.39649 115.042 9.13728 114.735 8.95907C114.427 8.78086 114.07 8.68365 113.698 8.68365C113.422 8.68365 113.147 8.73225 112.888 8.84566C112.629 8.95907 112.402 9.10487 112.224 9.29929C112.045 9.4937 111.9 9.72051 111.786 9.97972C111.673 10.2389 111.624 10.5144 111.64 10.806C111.64 11.0976 111.689 11.3568 111.786 11.616C111.883 11.8752 112.045 12.102 112.224 12.2965C112.402 12.4909 112.629 12.6367 112.888 12.7501C113.147 12.8635 113.422 12.9121 113.698 12.8959Z" fill="#222539"/>
<path d="M121.831 13.5925C121.831 13.6249 121.815 13.6573 121.798 13.6735C121.782 13.6897 121.75 13.7059 121.717 13.7059H121.004C120.94 13.7059 120.891 13.6573 120.842 13.5763L119.903 11.7456H119.838H118.753V13.5439C118.753 13.6411 118.704 13.6897 118.607 13.6897H118.024C117.926 13.6897 117.878 13.6411 117.878 13.5439V8.0356C117.878 7.987 117.894 7.9546 117.91 7.9222C117.943 7.8898 117.975 7.8736 118.007 7.8736H118.153H118.607H119.822C120.389 7.8736 120.859 8.05181 121.231 8.40823C121.604 8.78085 121.782 9.23447 121.782 9.8015C121.782 10.1903 121.685 10.5305 121.507 10.8384C121.328 11.1462 121.085 11.3568 120.761 11.5188L121.798 13.5115C121.831 13.5439 121.831 13.5601 121.831 13.5925ZM118.753 8.73224V10.887H119.838C120.146 10.887 120.405 10.7898 120.616 10.5791C120.826 10.3685 120.923 10.1255 120.923 9.8177C120.923 9.50989 120.826 9.23447 120.616 9.04006C120.405 8.84565 120.146 8.73224 119.838 8.73224H118.753Z" fill="#222539"/>
<path d="M122.689 8.60261V8.03558C122.689 7.93837 122.738 7.88977 122.835 7.88977H126.545C126.642 7.88977 126.691 7.93837 126.691 8.03558V8.60261C126.691 8.65121 126.675 8.68361 126.659 8.71602C126.626 8.74842 126.594 8.76462 126.561 8.76462H125.152V13.5763C125.152 13.6735 125.103 13.7221 125.006 13.7221H124.423C124.326 13.7221 124.277 13.6735 124.277 13.5763V8.76462H122.851C122.803 8.76462 122.77 8.74842 122.738 8.73222C122.689 8.68361 122.689 8.65121 122.689 8.60261Z" fill="#222539"/>
<path d="M133.884 12.4261C133.933 12.4261 133.965 12.4423 133.981 12.4747L134.322 12.9931C134.338 13.0093 134.338 13.0255 134.338 13.0417C134.338 13.0903 134.305 13.1389 134.257 13.1875C134.03 13.3819 133.771 13.5277 133.447 13.6411C133.139 13.7545 132.831 13.8031 132.523 13.8031C131.989 13.8031 131.486 13.6735 131.033 13.3981C130.579 13.1389 130.223 12.7663 129.964 12.3127C129.704 11.859 129.575 11.3568 129.575 10.806C129.575 10.2551 129.704 9.75291 129.964 9.28308C130.223 8.81326 130.595 8.45684 131.033 8.19762C131.486 7.92221 131.989 7.7926 132.523 7.7926C132.815 7.7926 133.123 7.85741 133.431 7.97081C133.755 8.08422 134.03 8.23003 134.273 8.42444C134.322 8.47304 134.354 8.52164 134.354 8.55404C134.354 8.57025 134.354 8.60265 134.338 8.61885L133.981 9.12108C133.965 9.15348 133.933 9.16968 133.884 9.16968C133.852 9.16968 133.803 9.15348 133.771 9.12108C133.576 8.97527 133.382 8.86186 133.155 8.78086C132.928 8.69985 132.718 8.65125 132.523 8.65125C132.134 8.65125 131.794 8.74846 131.47 8.94287C131.162 9.13728 130.903 9.39649 130.725 9.72051C130.531 10.0445 130.45 10.4009 130.45 10.806C130.45 11.0976 130.498 11.3568 130.612 11.6322C130.725 11.8914 130.871 12.1344 131.065 12.3127C131.26 12.5071 131.486 12.6529 131.746 12.7663C132.005 12.8797 132.28 12.9283 132.556 12.9283C132.75 12.9283 132.961 12.8797 133.188 12.7987C133.414 12.7177 133.609 12.6043 133.787 12.4585C133.803 12.4423 133.852 12.4261 133.884 12.4261Z" fill="#222539"/>
<path d="M138.032 7.7926C138.566 7.7926 139.068 7.92221 139.506 8.19762C139.96 8.45684 140.316 8.82946 140.575 9.28308C140.834 9.73671 140.964 10.2551 140.964 10.806C140.964 11.3568 140.834 11.859 140.575 12.3289C140.316 12.7825 139.96 13.1389 139.506 13.4143C139.052 13.6735 138.566 13.8193 138.032 13.8193C137.497 13.8193 136.995 13.6897 136.541 13.4143C136.087 13.1227 135.731 12.7663 135.472 12.3127C135.213 11.859 135.083 11.3568 135.083 10.7898C135.083 10.2389 135.213 9.72051 135.472 9.26688C135.731 8.81326 136.087 8.44064 136.541 8.18142C136.995 7.92221 137.497 7.7926 138.032 7.7926ZM138.032 12.8959C138.307 12.8959 138.582 12.8473 138.825 12.7339C139.068 12.6205 139.295 12.4747 139.49 12.2802C139.684 12.0858 139.83 11.859 139.927 11.5998C140.024 11.3406 140.089 11.0652 140.089 10.7898C140.089 10.4009 139.992 10.0445 139.814 9.72051C139.635 9.39649 139.376 9.13728 139.068 8.95907C138.761 8.78086 138.404 8.68365 138.032 8.68365C137.756 8.68365 137.481 8.73225 137.222 8.84566C136.962 8.95907 136.736 9.10487 136.557 9.29929C136.379 9.4937 136.233 9.72051 136.12 9.97972C136.006 10.2389 135.958 10.5144 135.974 10.806C135.974 11.0976 136.023 11.3568 136.12 11.616C136.217 11.8752 136.379 12.102 136.557 12.2965C136.736 12.4909 136.962 12.6367 137.222 12.7501C137.481 12.8635 137.756 12.9121 138.032 12.8959Z" fill="#222539"/>
<path d="M148.06 13.6897H147.477C147.396 13.6897 147.347 13.6411 147.331 13.5439L146.926 9.42888L145.484 13.2685C145.468 13.3495 145.419 13.3981 145.338 13.3981H144.723C144.674 13.3981 144.658 13.3819 144.625 13.3657C144.609 13.3495 144.593 13.3171 144.577 13.2685L143.151 9.44508L142.746 13.5601C142.73 13.6573 142.681 13.7059 142.6 13.7059H142.017C141.92 13.7059 141.871 13.6573 141.871 13.5439L142.454 8.0194C142.471 7.9222 142.519 7.8736 142.6 7.8736H143.362C143.443 7.8736 143.507 7.9222 143.524 8.0032L145.047 12.1506L146.569 8.0032C146.602 7.9222 146.65 7.8736 146.731 7.8736H147.493C147.574 7.8736 147.623 7.9222 147.639 8.0194L148.222 13.5439C148.206 13.6411 148.157 13.6897 148.06 13.6897Z" fill="#222539"/>
<path d="M153.358 9.8177C153.358 10.1903 153.277 10.5143 153.115 10.806C152.936 11.1138 152.71 11.3406 152.402 11.5026C152.094 11.6646 151.77 11.7456 151.397 11.7456H150.377V13.5439C150.377 13.6411 150.328 13.6897 150.231 13.6897H149.648C149.55 13.6897 149.502 13.6411 149.502 13.5439V8.0356C149.502 7.987 149.518 7.9546 149.534 7.9222C149.567 7.8898 149.599 7.8736 149.631 7.8736H149.923H150.231H151.381C151.754 7.8736 152.094 7.9546 152.386 8.11661C152.693 8.27862 152.92 8.50543 153.082 8.81325C153.277 9.12106 153.358 9.44508 153.358 9.8177ZM152.483 9.8177C152.483 9.50989 152.386 9.25067 152.175 9.04006C151.964 8.82945 151.705 8.73224 151.397 8.73224H150.377V10.887H151.397C151.705 10.887 151.964 10.7898 152.175 10.5791C152.369 10.3847 152.483 10.1255 152.483 9.8177Z" fill="#222539"/>
<path d="M158.591 13.5925C158.591 13.6573 158.542 13.7059 158.461 13.7059H157.813C157.732 13.7059 157.683 13.6573 157.651 13.5763L157.23 12.4423H154.719L154.297 13.5763C154.265 13.6573 154.216 13.7059 154.119 13.7059H153.471C153.39 13.7059 153.341 13.6735 153.341 13.6087C153.341 13.5763 153.341 13.5601 153.358 13.5439L155.545 8.03561C155.577 7.93841 155.642 7.90601 155.723 7.90601H156.209C156.29 7.90601 156.355 7.95461 156.387 8.03561L158.574 13.5439C158.591 13.5601 158.591 13.5763 158.591 13.5925ZM155.01 11.6646H156.938L155.966 9.05627L155.01 11.6646Z" fill="#222539"/>
<path d="M164.552 7.987V13.5763C164.552 13.6573 164.52 13.6897 164.439 13.6897H163.823C163.742 13.6897 163.661 13.6573 163.613 13.5763L160.567 9.20207V13.5763C160.567 13.6573 160.535 13.6897 160.454 13.6897H159.806C159.725 13.6897 159.692 13.6573 159.692 13.5763V7.987C159.692 7.906 159.725 7.8736 159.806 7.8736H160.486C160.567 7.8736 160.632 7.9222 160.697 8.0032L163.678 12.2316V7.987C163.678 7.906 163.71 7.8736 163.791 7.8736H164.439C164.52 7.8736 164.552 7.9222 164.552 7.987Z" fill="#222539"/>
<path d="M170.288 7.9708C170.288 7.987 170.288 8.0194 170.271 8.06801L168.408 11.3568V13.5439C168.408 13.6411 168.36 13.6897 168.262 13.6897H167.679C167.582 13.6897 167.533 13.6411 167.533 13.5439V11.3568L165.67 8.05181C165.654 8.0194 165.638 7.987 165.638 7.9546C165.638 7.8898 165.686 7.8736 165.767 7.8736H166.464C166.529 7.8736 166.594 7.9222 166.642 8.0032L167.987 10.4495L169.332 8.0032C169.38 7.9222 169.429 7.8736 169.51 7.8736H170.19C170.255 7.8736 170.288 7.906 170.288 7.9708Z" fill="#222539"/>
<path d="M43.1754 29.0158C43.1754 27.3795 43.5642 25.9052 44.3419 24.5605C45.1033 23.2159 46.1726 22.1466 47.5497 21.3528C48.9105 20.5751 50.401 20.1701 52.0049 20.1701C53.625 20.1701 55.0993 20.5589 56.4601 21.3528C57.8048 22.1304 58.8741 23.1997 59.6517 24.5605C60.4294 25.9214 60.8344 27.4119 60.8344 29.0158C60.8344 30.6197 60.4456 32.1102 59.6517 33.4548C58.8741 34.7995 57.8048 35.8526 56.4601 36.6302C55.1155 37.4079 53.625 37.7967 52.0049 37.7967C50.3686 37.7967 48.8943 37.4079 47.5497 36.6302C46.1888 35.8526 45.1195 34.7833 44.3419 33.4548C43.5642 32.1264 43.1754 30.6359 43.1754 29.0158ZM46.4966 29.0158C46.4966 30.5549 47.0312 31.8509 48.0843 32.904C49.1373 33.9571 50.4496 34.4917 51.9887 34.4917C53.5278 34.4917 54.8401 33.9571 55.8931 32.904C56.9624 31.8347 57.4808 30.5387 57.4808 29.0158C57.497 28.0275 57.254 27.1041 56.768 26.2454C56.2819 25.3868 55.6015 24.7226 54.7428 24.2203C53.8842 23.7343 52.977 23.4913 51.9887 23.5075C51.0004 23.4913 50.077 23.7343 49.2345 24.2203C48.3759 24.7064 47.7117 25.3868 47.2094 26.2454C46.7234 27.1041 46.4804 28.0275 46.4966 29.0158Z" fill="#E72F4F"/>
<path d="M73.6493 31.2353L76.6789 36.9056C76.7437 37.0514 76.7437 37.181 76.6789 37.3106C76.6141 37.4402 76.5007 37.505 76.3387 37.505H73.5521C73.4063 37.505 73.2929 37.4726 73.2119 37.4078C73.1309 37.343 73.0337 37.2296 72.9527 37.0676L70.2958 31.9805H67.6388V36.9704C67.6388 37.3268 67.4606 37.4888 67.1204 37.4888H64.8199C64.4796 37.4888 64.3176 37.3106 64.3176 36.9704V20.9963C64.3176 20.8343 64.3662 20.7209 64.4634 20.6237C64.5606 20.5265 64.674 20.4779 64.8199 20.4779H65.4193H67.169H70.5064C72.2723 20.4779 73.6979 21.0125 74.8158 22.0656C75.9175 23.1349 76.4845 24.5281 76.4845 26.2454C76.4845 27.3633 76.2415 28.3353 75.7393 29.194C75.237 30.0526 74.5404 30.7331 73.6493 31.2353ZM70.4902 23.6371H67.6226V28.8214H70.4902C71.2516 28.8214 71.8834 28.5784 72.3857 28.0923C72.8879 27.6063 73.1309 26.9907 73.1309 26.2454C73.1309 25.484 72.8879 24.8521 72.3857 24.3661C71.8996 23.8801 71.2678 23.6371 70.4902 23.6371Z" fill="#E72F4F"/>
<path d="M88.6999 20.9477L95.083 36.9218C95.1478 37.1 95.1478 37.2458 95.083 37.3593C95.0182 37.4727 94.8886 37.5213 94.6942 37.5213H92.1507C92.0211 37.5213 91.8914 37.4727 91.778 37.3917C91.6646 37.3106 91.5836 37.1972 91.535 37.0514L90.4982 34.2163H83.6938L82.6731 37.0514C82.6245 37.1972 82.5435 37.3106 82.4301 37.3917C82.3167 37.4727 82.1871 37.5213 82.0413 37.5213H79.4978C79.3196 37.5213 79.1899 37.4727 79.1251 37.3593C79.0603 37.262 79.0603 37.1162 79.1251 36.938L85.5245 20.9639C85.6541 20.6399 85.8647 20.4941 86.1725 20.4941H88.068C88.3759 20.4617 88.5865 20.6237 88.6999 20.9477ZM87.096 24.836L84.7145 31.3811H89.4775L87.096 24.836Z" fill="#E72F4F"/>
<path d="M110.117 20.4617H112.661C112.92 20.4617 113.05 20.5913 113.05 20.8506V37.1C113.05 37.3593 112.92 37.4889 112.661 37.4889H110.231C109.923 37.4889 109.68 37.3431 109.486 37.0514L101.515 25.5002V37.1C101.515 37.3593 101.385 37.4889 101.126 37.4889H98.5825C98.3232 37.4889 98.1936 37.3593 98.1936 37.1V20.8668C98.1936 20.6075 98.3232 20.4779 98.5825 20.4779H101.223C101.499 20.4779 101.742 20.6399 101.952 20.9478L109.729 31.9806V20.883C109.745 20.5913 109.874 20.4617 110.117 20.4617Z" fill="#E72F4F"/>
<path d="M137.027 20.4617H139.571C139.749 20.4617 139.879 20.5103 139.96 20.6237C140.024 20.7209 140.024 20.8668 139.96 21.045L133.56 37.019C133.512 37.1649 133.414 37.2783 133.301 37.3755C133.188 37.4565 133.058 37.5051 132.912 37.5051H131.033C130.887 37.5051 130.757 37.4565 130.644 37.3755C130.531 37.2945 130.433 37.1649 130.385 37.0352L128.019 31.1543L125.67 37.0352C125.622 37.1811 125.525 37.2945 125.411 37.3917C125.298 37.4727 125.168 37.5213 125.022 37.5213H123.127C122.819 37.5213 122.608 37.3593 122.479 37.0514L116.128 21.0612C116.047 20.883 116.047 20.7371 116.112 20.6399C116.177 20.5427 116.306 20.4779 116.501 20.4779H119.044C119.368 20.4779 119.579 20.6399 119.676 20.9478L124.083 32.6934L128.554 20.9316C128.651 20.6237 128.862 20.4617 129.154 20.4617H131.697C131.875 20.4617 132.005 20.5103 132.086 20.6237C132.151 20.7371 132.151 20.8668 132.086 21.045L129.591 27.2661L131.908 32.8068L136.444 20.9316C136.541 20.6237 136.752 20.4617 137.027 20.4617Z" fill="#E72F4F"/>
<path d="M148.805 20.9477L155.188 36.9218C155.253 37.1 155.253 37.2458 155.188 37.3593C155.124 37.4727 154.994 37.5213 154.8 37.5213H152.256C152.126 37.5213 151.997 37.4727 151.883 37.3917C151.77 37.3106 151.689 37.1972 151.64 37.0514L150.604 34.2163H143.799L142.779 37.0514C142.73 37.1972 142.649 37.3106 142.535 37.3917C142.422 37.4727 142.292 37.5213 142.147 37.5213H139.603C139.425 37.5213 139.295 37.4727 139.231 37.3593C139.166 37.262 139.166 37.1162 139.231 36.938L145.63 20.9639C145.759 20.6399 145.97 20.4941 146.278 20.4941H148.173C148.481 20.4617 148.692 20.6237 148.805 20.9477ZM147.201 24.836L144.82 31.3811H149.583L147.201 24.836Z" fill="#E72F4F"/>
<path d="M166.335 20.4779H169.024C169.413 20.4779 169.542 20.6723 169.38 21.0774L163.823 30.7979V36.9704C163.823 37.3269 163.661 37.4889 163.321 37.4889H161.005C160.664 37.4889 160.486 37.3107 160.486 36.9704V30.7979L154.929 21.0774C154.832 20.883 154.816 20.7371 154.897 20.6237C154.962 20.5265 155.091 20.4617 155.286 20.4617H157.991C158.25 20.4617 158.445 20.6075 158.607 20.9154L162.155 27.3795L165.687 20.8992C165.849 20.6237 166.059 20.4779 166.335 20.4779Z" fill="#E72F4F"/>
<path d="M10.9518 40H16.0713C16.6383 40 17.0433 39.433 16.8651 38.8984L12.8959 27.5253C12.6043 26.6829 11.373 26.8287 11.2758 27.7197L10.1093 39.0928C10.0607 39.5788 10.4496 40 10.9518 40Z" fill="#E72F4F"/>
<path d="M23.9773 40H29.0158C29.5342 40 29.9392 39.5464 29.8744 39.0441L28.7404 27.8655C28.6432 26.9421 27.3633 26.7801 27.0555 27.6711L23.1673 38.8497C22.9567 39.4006 23.3779 40 23.9773 40Z" fill="#E72F4F"/>
<path d="M30.6197 0H9.36411C4.19603 0 0 4.19603 0 9.36411V31.9968C0 34.4269 1.08546 36.5978 2.78655 38.0559C3.6128 38.7687 4.90887 38.2341 5.03848 37.1486L7.40381 15.5367C7.48481 15.002 7.74403 14.7428 8.21385 14.7428H12.9283C13.4143 14.7428 13.7222 15.002 13.8518 15.5043L18.6958 29.4046C19.1171 30.6359 20.8505 30.6359 21.288 29.4046L26.132 15.5043C26.3102 15.002 26.6181 14.7428 27.0879 14.7428H31.7861C32.256 14.7428 32.5152 15.002 32.5962 15.5367L34.9777 37.1486C35.0911 38.2341 36.4034 38.7687 37.2296 38.0559C38.9307 36.5978 40.0162 34.4269 40.0162 31.9968V9.36411C40 4.19603 35.804 0 30.6197 0Z" fill="#E72F4F"/>
<path d="M31.7862 14.759H27.0879C26.6181 14.759 26.2941 15.0182 26.132 15.5204L19.9919 33.1308L13.8518 15.5042C13.7222 15.002 13.4143 14.759 12.9283 14.759H8.21386C7.74403 14.759 7.48482 15.0182 7.40382 15.5528L4.79547 39.3195C5.78373 39.7569 6.86919 40 8.00325 40H10.0284L11.6646 23.9611L17.254 40H22.7623L28.3516 23.9611L29.9879 40H32.013C33.147 40 34.2325 39.7569 35.2207 39.3195L32.5962 15.5366C32.5152 15.0182 32.2398 14.759 31.7862 14.759Z" fill="white"/>
<path d="M31.6403 7.84123H28.2705C28.0437 7.84123 27.8493 7.64681 27.8493 7.42C27.8493 7.19319 28.0437 6.99878 28.2705 6.99878H31.6403C31.8671 6.99878 32.0616 7.19319 32.0616 7.42C32.0616 7.64681 31.8671 7.84123 31.6403 7.84123ZM24.8846 7.84123H21.5148C21.288 7.84123 21.0935 7.64681 21.0935 7.42C21.0935 7.19319 21.288 6.99878 21.5148 6.99878H24.8846C25.1114 6.99878 25.3058 7.19319 25.3058 7.42C25.3058 7.64681 25.1276 7.84123 24.8846 7.84123ZM18.145 7.84123H14.759C14.5322 7.84123 14.3378 7.64681 14.3378 7.42C14.3378 7.19319 14.5322 6.99878 14.759 6.99878H18.1288C18.3556 6.99878 18.55 7.19319 18.55 7.42C18.55 7.64681 18.3718 7.84123 18.145 7.84123ZM11.3892 7.84123H8.01943C7.79262 7.84123 7.59821 7.64681 7.59821 7.42C7.59821 7.19319 7.77641 6.99878 8.01943 6.99878H11.3892C11.616 6.99878 11.8104 7.19319 11.8104 7.42C11.8104 7.64681 11.616 7.84123 11.3892 7.84123Z" fill="white"/>
</g>
<defs>
<clipPath id="clip0">
<rect width="170.288" height="40" fill="white"/>
</clipPath>
</defs>
</svg>
