<svg width="20" height="20" viewBox="0 0 20 20" fill="none" xmlns="http://www.w3.org/2000/svg">
<path d="M12.1996 12.1997C12.8073 11.5921 13.1111 10.8589 13.1111 10.0001C13.1111 9.14128 12.8073 8.40807 12.1996 7.80043C11.592 7.19279 10.8588 6.88897 10 6.88897C9.1412 6.88897 8.40798 7.19279 7.80034 7.80043C7.19271 8.40807 6.88889 9.14128 6.88889 10.0001C6.88889 10.8589 7.19271 11.5921 7.80034 12.1997C8.40798 12.8074 9.1412 13.1112 10 13.1112C10.8588 13.1112 11.592 12.8074 12.1996 12.1997ZM13.3906 6.60946C14.3223 7.54117 14.7882 8.67138 14.7882 10.0001C14.7882 11.3288 14.3223 12.459 13.3906 13.3907C12.4589 14.3224 11.3287 14.7883 10 14.7883C8.67129 14.7883 7.54109 14.3224 6.60937 13.3907C5.67766 12.459 5.2118 11.3288 5.2118 10.0001C5.2118 8.67138 5.67766 7.54117 6.60937 6.60946C7.54109 5.67774 8.67129 5.21189 10 5.21189C11.3287 5.21189 12.4589 5.67774 13.3906 6.60946ZM15.7726 4.22751C15.9913 4.44626 16.1007 4.70957 16.1007 5.01744C16.1007 5.32531 15.9913 5.58862 15.7726 5.80737C15.5538 6.02612 15.2905 6.1355 14.9826 6.1355C14.6748 6.1355 14.4115 6.02612 14.1927 5.80737C13.974 5.58862 13.8646 5.32531 13.8646 5.01744C13.8646 4.70957 13.974 4.44626 14.1927 4.22751C14.4115 4.00876 14.6748 3.89939 14.9826 3.89939C15.2905 3.89939 15.5538 4.00876 15.7726 4.22751ZM10.9236 2.34383C10.3646 2.34383 10.0567 2.34383 10 2.34383C9.94328 2.34383 9.63136 2.34383 9.06423 2.34383C8.50521 2.33573 8.07986 2.33573 7.78819 2.34383C7.49652 2.34383 7.10359 2.35598 6.60937 2.38029C6.12326 2.39649 5.70602 2.437 5.35764 2.50182C5.01736 2.55853 4.72974 2.63145 4.49479 2.72057C4.0897 2.8826 3.73321 3.11756 3.42534 3.42543C3.11747 3.7333 2.88252 4.08978 2.72048 4.49487C2.63136 4.72983 2.5544 5.02149 2.48958 5.36987C2.43287 5.71015 2.39236 6.1274 2.36805 6.62161C2.35185 7.10772 2.3397 7.49661 2.33159 7.78828C2.33159 8.07994 2.33159 8.50934 2.33159 9.07647C2.3397 9.6355 2.34375 9.94337 2.34375 10.0001C2.34375 10.0568 2.3397 10.3687 2.33159 10.9358C2.33159 11.4949 2.33159 11.9202 2.33159 12.2119C2.3397 12.5036 2.35185 12.8965 2.36805 13.3907C2.39236 13.8768 2.43287 14.2941 2.48958 14.6424C2.5544 14.9827 2.63136 15.2703 2.72048 15.5053C2.88252 15.9104 3.11747 16.2669 3.42534 16.5747C3.73321 16.8826 4.0897 17.1176 4.49479 17.2796C4.72974 17.3687 5.01736 17.4457 5.35764 17.5105C5.70602 17.5672 6.12326 17.6077 6.60937 17.632C7.10359 17.6482 7.49652 17.6604 7.78819 17.6685C8.07986 17.6685 8.50521 17.6685 9.06423 17.6685C9.63136 17.6604 9.94328 17.6563 10 17.6563C10.0567 17.6563 10.3646 17.6604 10.9236 17.6685C11.4907 17.6685 11.9201 17.6685 12.2118 17.6685C12.5035 17.6604 12.8924 17.6482 13.3785 17.632C13.8727 17.6077 14.2899 17.5672 14.6302 17.5105C14.9786 17.4457 15.2703 17.3687 15.5052 17.2796C15.9103 17.1176 16.2668 16.8826 16.5746 16.5747C16.8825 16.2669 17.1175 15.9104 17.2795 15.5053C17.3686 15.2703 17.4415 14.9827 17.4983 14.6424C17.5631 14.2941 17.6036 13.8768 17.6198 13.3907C17.6441 12.8965 17.6562 12.5036 17.6562 12.2119C17.6643 11.9202 17.6643 11.4949 17.6562 10.9358C17.6562 10.3687 17.6562 10.0568 17.6562 10.0001C17.6562 9.94337 17.6562 9.6355 17.6562 9.07647C17.6643 8.50934 17.6643 8.07994 17.6562 7.78828C17.6562 7.49661 17.6441 7.10772 17.6198 6.62161C17.6036 6.1274 17.5631 5.71015 17.4983 5.36987C17.4415 5.02149 17.3686 4.72983 17.2795 4.49487C17.1175 4.08978 16.8825 3.7333 16.5746 3.42543C16.2668 3.11756 15.9103 2.8826 15.5052 2.72057C15.2703 2.63145 14.9786 2.55853 14.6302 2.50182C14.2899 2.437 13.8727 2.39649 13.3785 2.38029C12.8924 2.35598 12.5035 2.34383 12.2118 2.34383C11.9201 2.33573 11.4907 2.33573 10.9236 2.34383ZM19.2726 6.14765C19.3131 6.86061 19.3333 8.14476 19.3333 10.0001C19.3333 11.8554 19.3131 13.1395 19.2726 13.8525C19.1915 15.5377 18.6892 16.8421 17.7656 17.7657C16.842 18.6893 15.5376 19.1916 13.8524 19.2726C13.1395 19.3132 11.8553 19.3334 10 19.3334C8.14467 19.3334 6.86053 19.3132 6.14757 19.2726C4.46238 19.1916 3.15798 18.6893 2.23437 17.7657C1.31076 16.8421 0.808447 15.5377 0.727428 13.8525C0.686919 13.1395 0.666664 11.8554 0.666664 10.0001C0.666664 8.14476 0.686919 6.86061 0.727428 6.14765C0.808447 4.46247 1.31076 3.15807 2.23437 2.23446C3.15798 1.31085 4.46238 0.80853 6.14757 0.727513C6.86053 0.687003 8.14467 0.666748 10 0.666748C11.8553 0.666748 13.1395 0.687003 13.8524 0.727513C15.5376 0.80853 16.842 1.31085 17.7656 2.23446C18.6892 3.15807 19.1915 4.46247 19.2726 6.14765Z"/>
</svg>
