<svg width="20" height="16" viewBox="0 0 20 16" fill="none" xmlns="http://www.w3.org/2000/svg">
<path d="M19.3333 2.46696C18.8043 3.24079 18.1647 3.90013 17.4145 4.44497C17.4224 4.55551 17.4264 4.72133 17.4264 4.94243C17.4264 5.96894 17.2764 6.99545 16.9763 8.02196C16.6762 9.04057 16.2183 10.0197 15.6024 10.9593C14.9943 11.899 14.2679 12.7321 13.423 13.4585C12.5781 14.1771 11.5595 14.7535 10.3672 15.1878C9.17483 15.6142 7.89959 15.8274 6.54144 15.8274C4.40157 15.8274 2.44331 15.2549 0.666656 14.1099C0.943024 14.1415 1.25098 14.1573 1.59051 14.1573C3.36716 14.1573 4.95036 13.6125 6.34009 12.5228C5.51099 12.507 4.76874 12.2543 4.11336 11.7648C3.45797 11.2673 3.00789 10.6356 2.7631 9.86967C3.02368 9.90915 3.26451 9.92889 3.48561 9.92889C3.82514 9.92889 4.16073 9.88546 4.49238 9.79861C3.608 9.61699 2.87365 9.17875 2.28933 8.48388C1.71291 7.78112 1.42469 6.96781 1.42469 6.04395V5.99657C1.96164 6.29663 2.53806 6.4585 3.15397 6.48219C2.63282 6.13476 2.21826 5.68073 1.91031 5.12009C1.60236 4.55946 1.44838 3.95145 1.44838 3.29607C1.44838 2.6012 1.6221 1.95766 1.96953 1.36544C2.92498 2.54198 4.08572 3.48558 5.45177 4.19624C6.82571 4.899 8.2944 5.28986 9.85786 5.36883C9.79469 5.06877 9.7631 4.77661 9.7631 4.49234C9.7631 3.43425 10.1342 2.53408 10.8765 1.79184C11.6266 1.0417 12.5307 0.666626 13.5888 0.666626C14.6943 0.666626 15.626 1.06933 16.3841 1.87475C17.2448 1.70893 18.0541 1.40097 18.8122 0.95089C18.52 1.85896 17.9594 2.56172 17.1303 3.05918C17.8646 2.98022 18.599 2.78281 19.3333 2.46696Z" fill="#B387D5"/>
</svg>
