<svg width="23" height="17" viewBox="0 0 23 17" fill="none" xmlns="http://www.w3.org/2000/svg">
<path d="M9.06225 11.5368L15.0039 8.38421L9.06225 5.19382V11.5368ZM11.3333 0.666748C12.7083 0.666748 14.0341 0.687765 15.3108 0.729799C16.5957 0.763426 17.5369 0.801257 18.1343 0.843291L19.0304 0.893732C19.0386 0.893732 19.1082 0.902139 19.2391 0.918952C19.3701 0.927359 19.4642 0.939969 19.5215 0.956783C19.5788 0.965189 19.6729 0.982003 19.8038 1.00722C19.943 1.03244 20.0616 1.06607 20.1598 1.10811C20.2581 1.15014 20.3726 1.20478 20.5036 1.27204C20.6345 1.33929 20.7614 1.42336 20.8841 1.52424C21.0069 1.61672 21.1256 1.72601 21.2401 1.85211C21.2892 1.90255 21.3506 1.98241 21.4243 2.0917C21.5061 2.19259 21.6248 2.43638 21.7803 2.8231C21.944 3.20981 22.0545 3.63436 22.1117 4.09673C22.1772 4.63477 22.2263 5.21063 22.2591 5.82433C22.3 6.42962 22.3245 6.90461 22.3327 7.24929V9.46869C22.3409 10.6877 22.2672 11.9067 22.1117 13.1257C22.0545 13.588 21.9522 14.0084 21.8048 14.3867C21.6575 14.7566 21.5266 15.013 21.412 15.1559L21.2401 15.3703C21.1256 15.4964 21.0069 15.6099 20.8841 15.7108C20.7614 15.8032 20.6345 15.8831 20.5036 15.9503C20.3726 16.0092 20.2581 16.0596 20.1598 16.1017C20.0616 16.1437 19.943 16.1773 19.8038 16.2026C19.6729 16.2278 19.5747 16.2488 19.5092 16.2656C19.4519 16.274 19.3578 16.2866 19.2269 16.3034C19.1041 16.3118 19.0386 16.316 19.0304 16.316C16.9762 16.4758 14.4105 16.5556 11.3333 16.5556C9.63923 16.5388 8.1661 16.5136 6.91394 16.48C5.66996 16.4379 4.85155 16.4043 4.45872 16.3791L3.85719 16.3287L3.41525 16.2782C3.12062 16.2362 2.89556 16.1941 2.74006 16.1521C2.59275 16.1101 2.38405 16.0218 2.11398 15.8873C1.85209 15.7528 1.62294 15.5804 1.42652 15.3703C1.37741 15.3198 1.31194 15.2442 1.2301 15.1433C1.15644 15.034 1.03778 14.786 0.874094 14.3993C0.718597 14.0126 0.612204 13.588 0.554916 13.1257C0.489443 12.5876 0.436247 12.016 0.395326 11.4107C0.36259 10.797 0.34213 10.3178 0.333946 9.9731V7.7537C0.325762 6.53471 0.399418 5.31572 0.554916 4.09673C0.612204 3.63436 0.714505 3.21822 0.861818 2.84832C1.00913 2.47001 1.14008 2.2094 1.25465 2.06648L1.42652 1.85211C1.5411 1.72601 1.65976 1.61672 1.78253 1.52424C1.90529 1.42336 2.03214 1.33929 2.16308 1.27204C2.29403 1.20478 2.40861 1.15014 2.50682 1.10811C2.60502 1.06607 2.7196 1.03244 2.85055 1.00722C2.98968 0.982003 3.08788 0.965189 3.14517 0.956783C3.20246 0.939969 3.29658 0.927359 3.42752 0.918952C3.55847 0.902139 3.62803 0.893732 3.63622 0.893732C5.69042 0.742409 8.25612 0.666748 11.3333 0.666748Z"/>
</svg>
