<svg width="88" height="15" viewBox="0 0 88 15" fill="none" xmlns="http://www.w3.org/2000/svg">
<path d="M14.8571 6.0625C14.8571 5.79464 14.5714 5.6875 14.3571 5.65178L9.875 5L7.86607 0.937499C7.78571 0.767857 7.63393 0.571428 7.42857 0.571428C7.22321 0.571428 7.07143 0.767857 6.99107 0.937499L4.98214 5L0.5 5.65178C0.276786 5.6875 0 5.79464 0 6.0625C0 6.22321 0.116071 6.375 0.223214 6.49107L3.47321 9.65179L2.70536 14.1161C2.69643 14.1786 2.6875 14.2321 2.6875 14.2946C2.6875 14.5268 2.80357 14.7411 3.0625 14.7411C3.1875 14.7411 3.30357 14.6964 3.41964 14.6339L7.42857 12.5268L11.4375 14.6339C11.5446 14.6964 11.6696 14.7411 11.7946 14.7411C12.0536 14.7411 12.1607 14.5268 12.1607 14.2946C12.1607 14.2321 12.1607 14.1786 12.1518 14.1161L11.3839 9.65179L14.625 6.49107C14.7411 6.375 14.8571 6.22321 14.8571 6.0625ZM32.9165 6.0625C32.9165 5.79464 32.6308 5.6875 32.4165 5.65178L27.9344 5L25.9254 0.937499C25.8451 0.767857 25.6933 0.571428 25.4879 0.571428C25.2826 0.571428 25.1308 0.767857 25.0504 0.937499L23.0415 5L18.5594 5.65178C18.3362 5.6875 18.0594 5.79464 18.0594 6.0625C18.0594 6.22321 18.1754 6.375 18.2826 6.49107L21.5326 9.65179L20.7647 14.1161C20.7558 14.1786 20.7469 14.2321 20.7469 14.2946C20.7469 14.5268 20.8629 14.7411 21.1219 14.7411C21.2469 14.7411 21.3629 14.6964 21.479 14.6339L25.4879 12.5268L29.4969 14.6339C29.604 14.6964 29.729 14.7411 29.854 14.7411C30.1129 14.7411 30.2201 14.5268 30.2201 14.2946C30.2201 14.2321 30.2201 14.1786 30.2112 14.1161L29.4433 9.65179L32.6844 6.49107C32.8004 6.375 32.9165 6.22321 32.9165 6.0625ZM50.9759 6.0625C50.9759 5.79464 50.6902 5.6875 50.4759 5.65178L45.9938 5L43.9848 0.937499C43.9045 0.767857 43.7527 0.571428 43.5473 0.571428C43.342 0.571428 43.1902 0.767857 43.1098 0.937499L41.1009 5L36.6188 5.65178C36.3955 5.6875 36.1188 5.79464 36.1188 6.0625C36.1188 6.22321 36.2348 6.375 36.342 6.49107L39.592 9.65179L38.8241 14.1161C38.8152 14.1786 38.8063 14.2321 38.8063 14.2946C38.8063 14.5268 38.9223 14.7411 39.1813 14.7411C39.3063 14.7411 39.4223 14.6964 39.5384 14.6339L43.5473 12.5268L47.5563 14.6339C47.6634 14.6964 47.7884 14.7411 47.9134 14.7411C48.1723 14.7411 48.2795 14.5268 48.2795 14.2946C48.2795 14.2321 48.2795 14.1786 48.2705 14.1161L47.5027 9.65179L50.7438 6.49107C50.8598 6.375 50.9759 6.22321 50.9759 6.0625ZM69.0353 6.0625C69.0353 5.79464 68.7496 5.6875 68.5353 5.65178L64.0531 5L62.0442 0.937499C61.9638 0.767857 61.8121 0.571428 61.6067 0.571428C61.4013 0.571428 61.2496 0.767857 61.1692 0.937499L59.1603 5L54.6781 5.65178C54.4549 5.6875 54.1781 5.79464 54.1781 6.0625C54.1781 6.22321 54.2942 6.375 54.4013 6.49107L57.6513 9.65179L56.8835 14.1161C56.8746 14.1786 56.8656 14.2321 56.8656 14.2946C56.8656 14.5268 56.9817 14.7411 57.2406 14.7411C57.3656 14.7411 57.4817 14.6964 57.5978 14.6339L61.6067 12.5268L65.6156 14.6339C65.7228 14.6964 65.8478 14.7411 65.9728 14.7411C66.2317 14.7411 66.3388 14.5268 66.3388 14.2946C66.3388 14.2321 66.3388 14.1786 66.3299 14.1161L65.5621 9.65179L68.8031 6.49107C68.9192 6.375 69.0353 6.22321 69.0353 6.0625ZM87.0946 6.0625C87.0946 5.79464 86.8089 5.6875 86.5946 5.65178L82.1125 5L80.1036 0.937499C80.0232 0.767857 79.8714 0.571428 79.6661 0.571428C79.4607 0.571428 79.3089 0.767857 79.2286 0.937499L77.2196 5L72.7375 5.65178C72.5143 5.6875 72.2375 5.79464 72.2375 6.0625C72.2375 6.22321 72.3536 6.375 72.4607 6.49107L75.7107 9.65179L74.9429 14.1161C74.9339 14.1786 74.925 14.2321 74.925 14.2946C74.925 14.5268 75.0411 14.7411 75.3 14.7411C75.425 14.7411 75.5411 14.6964 75.6571 14.6339L79.6661 12.5268L83.675 14.6339C83.7821 14.6964 83.9071 14.7411 84.0321 14.7411C84.2911 14.7411 84.3982 14.5268 84.3982 14.2946C84.3982 14.2321 84.3982 14.1786 84.3893 14.1161L83.6214 9.65179L86.8625 6.49107C86.9786 6.375 87.0946 6.22321 87.0946 6.0625Z" fill="#FFC200"/>
</svg>
