<svg width="211" height="84" viewBox="0 0 211 84" fill="none" xmlns="http://www.w3.org/2000/svg">
<g id="Frame 39" clip-path="url(#clip0)">
<g id="Group 27">
<rect id="Rectangle 38" y="41.7924" width="59.1033" height="59.1033" rx="5" transform="rotate(-45 0 41.7924)" fill="#5513A0" fill-opacity="0.1"/>
<rect id="Rectangle 39" x="14.0797" y="41.7924" width="57.1033" height="57.1033" rx="4" transform="rotate(-45 14.0797 41.7924)" stroke="#E72F4F" stroke-width="2"/>
</g>
<g id="Group 53">
<path id="Subtract" fill-rule="evenodd" clip-rule="evenodd" d="M81.7701 66.4938L102.936 45.3279C104.889 43.3753 104.889 40.2094 102.936 38.2568L81.7701 17.0909V19.9194L101.522 39.671C102.693 40.8426 102.693 42.7421 101.522 43.9137L81.7701 63.6653V66.4938Z" fill="#E72F4F"/>
<path id="Subtract_2" opacity="0.5" fill-rule="evenodd" clip-rule="evenodd" d="M93.6949 66.4938L114.861 45.3279C116.813 43.3753 116.813 40.2094 114.861 38.2568L93.6949 17.0909V19.9194L113.447 39.671C114.618 40.8426 114.618 42.7421 113.447 43.9137L93.6949 63.6654V66.4938Z" fill="#E72F4F"/>
<path id="Subtract_3" opacity="0.2" fill-rule="evenodd" clip-rule="evenodd" d="M104.768 66.4938L125.934 45.3279C127.886 43.3753 127.886 40.2094 125.934 38.2568L104.768 17.0909V19.9194L124.52 39.671C125.691 40.8426 125.691 42.7421 124.52 43.9137L104.768 63.6653V66.4938Z" fill="#E72F4F"/>
<animateTransform attributeName="transform"
    type="translate"
    from="0 0"
    to="20 0"
    begin="0s"
    dur="2s"
    repeatCount="indefinite"
    d="circ-anim"
  />
<animate attributeName="opacity"
             values="0;1;0;" dur="2s"
             repeatCount="indefinite"/>
</g>
<path id="01" d="M40.0566 42.3359C40.0566 38.7715 40.8379 36.0322 42.4004 34.1182C43.9727 32.1943 46.1992 31.2324 49.0801 31.2324C51.9609 31.2324 54.1875 32.1943 55.7598 34.1182C57.332 36.042 58.1182 38.7812 58.1182 42.3359C58.1182 45.8809 57.332 48.6152 55.7598 50.5391C54.1875 52.4629 51.9609 53.4248 49.0801 53.4248C46.1992 53.4248 43.9727 52.4629 42.4004 50.5391C40.8379 48.625 40.0566 45.8906 40.0566 42.3359ZM49.0947 49.3818C50.7256 49.3818 51.9609 48.7812 52.8008 47.5801C53.6504 46.3789 54.0752 44.626 54.0752 42.3213C54.0752 40.0166 53.6504 38.2686 52.8008 37.0771C51.9512 35.876 50.7158 35.2754 49.0947 35.2754C47.4736 35.2754 46.2432 35.876 45.4033 37.0771C44.5635 38.2686 44.1436 40.0166 44.1436 42.3213C44.1436 44.626 44.5635 46.3789 45.4033 47.5801C46.2432 48.7812 47.4736 49.3818 49.0947 49.3818ZM64.9443 31.5693H67.0537C67.5322 31.5693 67.7715 31.833 67.7715 32.3604V52.1357C67.7715 52.3994 67.6885 52.6094 67.5225 52.7656C67.3564 52.9219 67.1416 53 66.8779 53H64.5781C64.3242 53 64.1191 52.9268 63.9629 52.7803C63.8066 52.624 63.7285 52.4189 63.7285 52.165V36.5352L60.6084 38.2637C60.3545 38.3711 60.1494 38.376 59.9932 38.2783C59.8369 38.1807 59.7588 38.0098 59.7588 37.7656V34.9531C59.7588 34.543 59.8955 34.25 60.1689 34.0742L63.6113 31.9355C64.0898 31.6914 64.5342 31.5693 64.9443 31.5693Z" fill="#5513A0"/>
</g>
<defs>
<clipPath id="clip0">
<rect width="211" height="83.5847" fill="white"/>
</clipPath>
</defs>
</svg>
