<svg width="211" height="84" viewBox="0 0 211 84" fill="none" xmlns="http://www.w3.org/2000/svg">
<g id="Frame 42" clip-path="url(#clip0)">
<g id="Group 27">
<rect id="Rectangle 38" y="41.7924" width="59.1033" height="59.1033" rx="5" transform="rotate(-45 0 41.7924)" fill="#5513A0" fill-opacity="0.1"/>
<rect id="Rectangle 39" x="14.0797" y="41.7924" width="57.1033" height="57.1033" rx="4" transform="rotate(-45 14.0797 41.7924)" stroke="#E72F4F" stroke-width="2"/>
</g>
<g id="Group 54">
<path id="Subtract" fill-rule="evenodd" clip-rule="evenodd" d="M81.7701 66.4938L102.936 45.3279C104.889 43.3753 104.889 40.2094 102.936 38.2568L81.7701 17.0909V19.9194L101.522 39.671C102.693 40.8426 102.693 42.7421 101.522 43.9137L81.7701 63.6653V66.4938Z" fill="#E72F4F"/>
<path id="Subtract_2" opacity="0.5" fill-rule="evenodd" clip-rule="evenodd" d="M93.6949 66.4938L114.861 45.3279C116.813 43.3753 116.813 40.2094 114.861 38.2568L93.6949 17.0909V19.9194L113.447 39.671C114.618 40.8426 114.618 42.7421 113.447 43.9137L93.6949 63.6654V66.4938Z" fill="#E72F4F"/>
<path id="Subtract_3" opacity="0.2" fill-rule="evenodd" clip-rule="evenodd" d="M104.768 66.4938L125.934 45.3279C127.886 43.3753 127.886 40.2094 125.934 38.2568L104.768 17.0909V19.9194L124.52 39.671C125.691 40.8426 125.691 42.7421 124.52 43.9137L104.768 63.6653V66.4938Z" fill="#E72F4F"/>
<animateTransform attributeName="transform"
    type="translate"
    from="0 0"
    to="20 0"
    begin="0s"
    dur="2s"
    repeatCount="indefinite"
    d="circ-anim"
  />
<animate attributeName="opacity"
             values="0;1;0;" dur="2s"
             repeatCount="indefinite"/>
</g>
<path id="02" d="M37.0098 42.3359C37.0098 38.7715 37.791 36.0322 39.3535 34.1182C40.9258 32.1943 43.1523 31.2324 46.0332 31.2324C48.9141 31.2324 51.1406 32.1943 52.7129 34.1182C54.2852 36.042 55.0713 38.7812 55.0713 42.3359C55.0713 45.8809 54.2852 48.6152 52.7129 50.5391C51.1406 52.4629 48.9141 53.4248 46.0332 53.4248C43.1523 53.4248 40.9258 52.4629 39.3535 50.5391C37.791 48.625 37.0098 45.8906 37.0098 42.3359ZM46.0479 49.3818C47.6787 49.3818 48.9141 48.7812 49.7539 47.5801C50.6035 46.3789 51.0283 44.626 51.0283 42.3213C51.0283 40.0166 50.6035 38.2686 49.7539 37.0771C48.9043 35.876 47.6689 35.2754 46.0479 35.2754C44.4268 35.2754 43.1963 35.876 42.3564 37.0771C41.5166 38.2686 41.0967 40.0166 41.0967 42.3213C41.0967 44.626 41.5166 46.3789 42.3564 47.5801C43.1963 48.7812 44.4268 49.3818 46.0479 49.3818ZM63.5967 48.8105H71.0234C71.5605 48.8105 71.8291 49.0645 71.8291 49.5723V52.2822C71.8291 52.4971 71.7607 52.668 71.624 52.7949C71.4873 52.9219 71.3018 52.9854 71.0674 52.9854H57.8984C57.625 52.9854 57.4102 52.9268 57.2539 52.8096C57.1074 52.6826 57.0342 52.5166 57.0342 52.3115V50.3633C57.0342 50.0117 57.1074 49.7627 57.2539 49.6162L65.3838 41.6768C65.9209 41.1396 66.3408 40.5781 66.6436 39.9922C66.9561 39.4062 67.1123 38.8691 67.1123 38.3809C67.1123 37.4629 66.8438 36.7451 66.3066 36.2275C65.7793 35.71 65.0469 35.4512 64.1094 35.4512C63.5137 35.4512 62.9473 35.6416 62.4102 36.0225C61.873 36.4033 61.4336 36.9307 61.0918 37.6045C60.8867 37.9854 60.584 38.0439 60.1836 37.7803L57.8105 36.1836C57.4492 36.0078 57.3955 35.7197 57.6494 35.3193C58.3721 34.0596 59.3096 33.0684 60.4619 32.3457C61.624 31.623 62.8398 31.2617 64.1094 31.2617C66.3457 31.2617 68.0986 31.9111 69.3682 33.21C70.6572 34.499 71.3018 36.2227 71.3018 38.3809C71.3018 39.4648 71.043 40.5635 70.5254 41.6768C70.0176 42.7607 69.3096 43.7031 68.4014 44.5039L63.5967 48.8105Z" fill="#5513A0"/>
</g>
<defs>
<clipPath id="clip0">
<rect width="211" height="83.5847" fill="white"/>
</clipPath>
</defs>
</svg>
