<svg width="211" height="84" viewBox="0 0 211 84" fill="none" xmlns="http://www.w3.org/2000/svg">
<g id="Frame 43" clip-path="url(#clip0)">
<g id="Group 27">
<rect id="Rectangle 38" y="41.7924" width="59.1033" height="59.1033" rx="5" transform="rotate(-45 0 41.7924)" fill="#5513A0" fill-opacity="0.1"/>
<rect id="Rectangle 39" x="14.0797" y="41.7924" width="57.1033" height="57.1033" rx="4" transform="rotate(-45 14.0797 41.7924)" stroke="#E72F4F" stroke-width="2"/>
</g>
<g id="Group 55">
<path id="Subtract" fill-rule="evenodd" clip-rule="evenodd" d="M81.7701 66.4938L102.936 45.3279C104.889 43.3753 104.889 40.2094 102.936 38.2568L81.7701 17.0909V19.9194L101.522 39.671C102.693 40.8426 102.693 42.7421 101.522 43.9137L81.7701 63.6653V66.4938Z" fill="#E72F4F"/>
<path id="Subtract_2" opacity="0.5" fill-rule="evenodd" clip-rule="evenodd" d="M93.6949 66.4938L114.861 45.3279C116.813 43.3753 116.813 40.2094 114.861 38.2568L93.6949 17.0909V19.9194L113.447 39.671C114.618 40.8426 114.618 42.7421 113.447 43.9137L93.6949 63.6654V66.4938Z" fill="#E72F4F"/>
<path id="Subtract_3" opacity="0.2" fill-rule="evenodd" clip-rule="evenodd" d="M104.768 66.4938L125.934 45.3279C127.886 43.3753 127.886 40.2094 125.934 38.2568L104.768 17.0909V19.9194L124.52 39.671C125.691 40.8426 125.691 42.7421 124.52 43.9137L104.768 63.6653V66.4938Z" fill="#E72F4F"/>
<animateTransform attributeName="transform"
    type="translate"
    from="0 0"
    to="20 0"
    begin="0s"
    dur="2s"
    repeatCount="indefinite"
    d="circ-anim"
  />
<animate attributeName="opacity"
             values="0;1;0;" dur="2s"
             repeatCount="indefinite"/>
</g>
<path id="03" d="M37.2881 42.3359C37.2881 38.7715 38.0693 36.0322 39.6318 34.1182C41.2041 32.1943 43.4307 31.2324 46.3115 31.2324C49.1924 31.2324 51.4189 32.1943 52.9912 34.1182C54.5635 36.042 55.3496 38.7812 55.3496 42.3359C55.3496 45.8809 54.5635 48.6152 52.9912 50.5391C51.4189 52.4629 49.1924 53.4248 46.3115 53.4248C43.4307 53.4248 41.2041 52.4629 39.6318 50.5391C38.0693 48.625 37.2881 45.8906 37.2881 42.3359ZM46.3262 49.3818C47.957 49.3818 49.1924 48.7812 50.0322 47.5801C50.8818 46.3789 51.3066 44.626 51.3066 42.3213C51.3066 40.0166 50.8818 38.2686 50.0322 37.0771C49.1826 35.876 47.9473 35.2754 46.3262 35.2754C44.7051 35.2754 43.4746 35.876 42.6348 37.0771C41.7949 38.2686 41.375 40.0166 41.375 42.3213C41.375 44.626 41.7949 46.3789 42.6348 47.5801C43.4746 48.7812 44.7051 49.3818 46.3262 49.3818ZM68.1523 41.5889C69.2266 41.9307 70.0713 42.5605 70.6865 43.4785C71.3018 44.4062 71.6094 45.5098 71.6094 46.7891C71.6094 48.7812 70.9404 50.3877 69.6025 51.6084C68.2744 52.8193 66.5312 53.4248 64.373 53.4248C62.8984 53.4248 61.5703 53.1709 60.3887 52.6631C59.2168 52.1553 58.2695 51.4424 57.5469 50.5244C57.3418 50.29 57.2246 50.0508 57.1953 49.8066C57.1758 49.5625 57.2539 49.3965 57.4297 49.3086L59.4365 47.668C59.8076 47.3848 60.1104 47.3994 60.3447 47.7119C60.6768 48.2393 61.2041 48.6494 61.9268 48.9424C62.6494 49.2354 63.4111 49.3818 64.2119 49.3818C65.1885 49.3818 65.9941 49.1084 66.6289 48.5615C67.2637 48.0049 67.5811 47.3066 67.5811 46.4668C67.5811 45.5684 67.2832 44.8506 66.6875 44.3135C66.082 43.7666 65.2764 43.4932 64.2705 43.4932H62.7031C62.2344 43.4932 62 43.2686 62 42.8193V40.6221C62 40.4072 62.0586 40.2363 62.1758 40.1094C62.293 39.9824 62.4492 39.9189 62.6445 39.9189H64.0215C64.7441 39.9189 65.3447 39.7041 65.8232 39.2744C66.3018 38.835 66.541 38.2783 66.541 37.6045C66.541 36.9111 66.3018 36.3545 65.8232 35.9346C65.3447 35.5049 64.7344 35.29 63.9922 35.29C63.4746 35.29 62.9814 35.417 62.5127 35.6709C62.0439 35.915 61.6582 36.2471 61.3555 36.667C61.1309 36.999 60.8477 37.0381 60.5059 36.7842L58.4258 35.085C58.1328 34.8994 58.1035 34.626 58.3379 34.2646C58.9434 33.3369 59.7539 32.6045 60.7695 32.0674C61.8145 31.5205 62.8936 31.2471 64.0068 31.2471C65.9795 31.2471 67.5615 31.7891 68.7529 32.873C69.9346 33.957 70.5254 35.4023 70.5254 37.209C70.5254 38.2051 70.3154 39.0889 69.8955 39.8604C69.4756 40.6318 68.8945 41.208 68.1523 41.5889Z" fill="#5513A0"/>
</g>
<defs>
<clipPath id="clip0">
<rect width="211" height="83.5847" fill="white"/>
</clipPath>
</defs>
</svg>
